<svg width="20" height="20" viewBox="0 0 20 20" fill="none" xmlns="http://www.w3.org/2000/svg">
<rect x="1" y="1" width="18" height="18" rx="9" stroke="white" stroke-width="2"/>
<path d="M10.6429 15H7.50893C7.1375 15 6.79319 14.6523 6.79319 14.2773C6.79319 13.9023 7.1375 13.5547 7.50893 13.5547H10.6429C12.1905 13.5547 13.2351 12.5 13.2351 10.9375C13.2351 9.375 12.1905 8.2214 10.6429 8.2214H8.10492L9.52857 9.5625C9.77619 9.8125 9.77619 10.1875 9.52857 10.4375C9.28095 10.6875 8.90952 10.6875 8.66191 10.4375L6.18571 7.9375C6.0619 7.8125 6 7.625 6 7.4375C6 7.25 6.12381 7.0625 6.24762 7L8.72381 5.125C8.84762 5.0625 8.97143 5 9.09524 5C9.28095 5 9.46667 5.0625 9.59048 5.25C9.77619 5.5 9.71429 5.9375 9.46667 6.125L8.2247 6.875H10.6429C12.8714 6.875 14.6667 8.6875 14.6667 10.9375C14.6667 13.1875 12.8095 15 10.6429 15Z" fill="white"/>
</svg>
