<svg width="16" height="14" viewBox="0 0 16 14" fill="none" xmlns="http://www.w3.org/2000/svg">
<path d="M8.02072 4.67041V7.79406L10.1726 6.23223" stroke="#AFA9A9" stroke-miterlimit="10" stroke-linejoin="round"/>
<path d="M1.72625 1.7028C0.757918 2.63989 0.757918 4.0976 1.72625 5.03469L5.16919 1.7028C4.20086 0.817766 2.69457 0.817766 1.72625 1.7028Z" stroke="#AFA9A9" stroke-miterlimit="10" stroke-linejoin="round"/>
<path d="M14.3138 1.70282C13.3455 0.765726 11.8392 0.765726 10.8709 1.70282L14.3138 5.03471C15.2284 4.09762 15.2284 2.63992 14.3138 1.70282Z" stroke="#AFA9A9" stroke-miterlimit="10" stroke-linejoin="round"/>
<path d="M2.64041 13L3.71633 11.9587" stroke="#AFA9A9" stroke-miterlimit="10" stroke-linejoin="round"/>
<path d="M13.3998 13L12.3239 11.9587" stroke="#AFA9A9" stroke-miterlimit="10" stroke-linejoin="round"/>
<path d="M8.02038 12.4795C10.6943 12.4795 12.862 10.3817 12.862 7.79399C12.862 5.20628 10.6943 3.10852 8.02038 3.10852C5.34642 3.10852 3.17874 5.20628 3.17874 7.79399C3.17874 10.3817 5.34642 12.4795 8.02038 12.4795Z" stroke="#AFA9A9" stroke-miterlimit="10"/>
</svg>
