<svg width="13" height="15" viewBox="0 0 13 15" fill="none" xmlns="http://www.w3.org/2000/svg">
<path fill-rule="evenodd" clip-rule="evenodd" d="M5.85 1.25C5.491 1.25 5.2 1.52982 5.2 1.875V2.5H7.8V1.875C7.8 1.52982 7.50899 1.25 7.15 1.25H5.85ZM9.1 2.5V1.875C9.1 0.839469 8.22698 0 7.15 0H5.85C4.77305 0 3.9 0.839469 3.9 1.875V2.5H0.65C0.291018 2.5 0 2.77982 0 3.125C0 3.47018 0.291018 3.75 0.65 3.75H0.718224L1.82548 13.3321C1.93521 14.2816 2.76994 15 3.76356 15H9.23643C10.2301 15 11.0648 14.2816 11.1745 13.3321L12.2817 3.75H12.35C12.709 3.75 13 3.47018 13 3.125C13 2.77982 12.709 2.5 12.35 2.5H9.1ZM10.9738 3.75H2.02622L3.11753 13.194C3.15411 13.5106 3.43235 13.75 3.76356 13.75H9.23643C9.56767 13.75 9.84587 13.5106 9.88247 13.194L10.9738 3.75ZM5.2 5.625C5.55899 5.625 5.85 5.90482 5.85 6.25V11.25C5.85 11.5952 5.55899 11.875 5.2 11.875C4.84102 11.875 4.55 11.5952 4.55 11.25V6.25C4.55 5.90482 4.84102 5.625 5.2 5.625ZM7.8 5.625C8.15899 5.625 8.45 5.90482 8.45 6.25V11.25C8.45 11.5952 8.15899 11.875 7.8 11.875C7.441 11.875 7.15 11.5952 7.15 11.25V6.25C7.15 5.90482 7.441 5.625 7.8 5.625Z" fill="#AFA9A9"/>
</svg>
