<svg width="12" height="12" viewBox="0 0 12 12" fill="none" xmlns="http://www.w3.org/2000/svg">
<path d="M1.68499 9.72134L1.74663 9.47476L1.58375 9.27965C1.27941 8.91508 1.00186 8.25286 0.801164 7.48512C0.60394 6.73069 0.500029 5.94935 0.5 5.40001C0.499913 3.73638 1.11442 2.53228 2.07634 1.73496C3.0507 0.927318 4.42787 0.5 5.99995 0.5C9.0884 0.5 11.5 2.74207 11.5 5.40004C11.5 8.1269 9.61744 10.3001 6.60005 10.3001C6.36551 10.3001 6.0313 10.3219 5.68425 10.3445C5.46909 10.3585 5.249 10.3729 5.04465 10.3826C4.7621 10.396 4.49324 10.4021 4.26036 10.3927C4.01891 10.3829 3.85322 10.3576 3.75893 10.326L3.58483 10.2676L3.41434 10.3358L1.32215 11.1727L1.68499 9.72134Z" stroke="#AFA9A9"/>
</svg>
