<svg width="20" height="20" viewBox="0 0 20 20" fill="none" xmlns="http://www.w3.org/2000/svg">
<path d="M13.0941 17.1429H10.1864C10.0803 17.1429 9.99328 17.1763 9.92509 17.2435C9.8571 17.3103 9.82292 17.396 9.82292 17.5001V19.6428C9.82292 19.7473 9.85694 19.8325 9.92509 19.8997C9.99332 19.9666 10.0803 20 10.1864 20H13.0941C13.2001 20 13.2873 19.9666 13.3552 19.8997C13.4235 19.8325 13.4571 19.7473 13.4571 19.6428V17.5001C13.4571 17.396 13.4235 17.3103 13.3552 17.2435C13.2873 17.1763 13.2001 17.1429 13.0941 17.1429Z" fill="#555555"/>
<path d="M7.64187 15.7143C6.43742 15.7143 5.46103 14.7379 5.46103 13.5334V0.357137C5.46103 0.253037 5.42705 0.16731 5.35886 0.100425C5.29067 0.0335793 5.20366 0 5.09756 0H2.91667C2.81072 0 2.72347 0.0334229 2.6554 0.100386C2.58741 0.167427 2.55324 0.253037 2.55324 0.357098V13.5334C2.55324 14.7378 1.57682 15.7142 0.372347 15.7142C0.20589 15.7142 0.0922666 15.7886 0.0316355 15.9374C-0.0290354 16.0789 -0.00237995 16.2091 0.111085 16.3281L3.74581 19.8997C3.82912 19.9664 3.91612 19.9998 4.00707 19.9998C4.1055 19.9998 4.19266 19.9664 4.26833 19.8997L7.89172 16.3393C7.96755 16.2503 8.00534 16.1607 8.00534 16.0718C8.00534 15.9672 7.97117 15.8819 7.90318 15.8144C7.83503 15.7477 7.74802 15.7143 7.64187 15.7143Z" fill="#555555"/>
<path d="M15.275 11.4288H10.1864C10.0803 11.4288 9.99328 11.4622 9.92509 11.5291C9.85706 11.596 9.82292 11.6816 9.82292 11.7856V13.9287C9.82292 14.0328 9.85694 14.1184 9.92509 14.1853C9.99328 14.2522 10.0803 14.2856 10.1864 14.2856H15.275C15.3811 14.2856 15.4681 14.2522 15.5361 14.1853C15.6043 14.1184 15.6385 14.0328 15.6385 13.9287V11.7856C15.6385 11.6816 15.6043 11.5959 15.5361 11.5291C15.4682 11.4622 15.3811 11.4288 15.275 11.4288Z" fill="#555555"/>
<path d="M19.898 0.100386C19.8297 0.0335793 19.7427 0 19.6366 0H10.1864C10.0803 0 9.99328 0.0334229 9.92509 0.100386C9.8571 0.167427 9.82292 0.253037 9.82292 0.357097V2.49999C9.82292 2.60421 9.85694 2.6897 9.92509 2.75671C9.99332 2.82351 10.0803 2.85709 10.1864 2.85709H19.6366C19.7427 2.85709 19.8297 2.82367 19.8979 2.75671C19.966 2.6897 20 2.60421 20 2.49999V0.357137C20.0002 0.253037 19.966 0.167271 19.898 0.100386Z" fill="#555555"/>
<path d="M17.456 5.71442H10.1864C10.0803 5.71442 9.99328 5.74784 9.92509 5.81488C9.85706 5.88184 9.82292 5.96734 9.82292 6.07159V8.21441C9.82292 8.31867 9.85694 8.40416 9.92509 8.47112C9.99328 8.53801 10.0803 8.57159 10.1864 8.57159H17.456C17.5619 8.57159 17.649 8.53816 17.7173 8.47112C17.7853 8.40416 17.8193 8.31867 17.8193 8.21441V6.07159C17.8193 5.96734 17.7853 5.88169 17.7173 5.81488C17.6489 5.748 17.5617 5.71442 17.456 5.71442Z" fill="#555555"/>
</svg>
